<svg width="8" height="10" viewBox="0 0 8 10" fill="none" xmlns="http://www.w3.org/2000/svg">
<g clip-path="url(#clip0_346_41)">
<path d="M5.792 5.17338L2.259 8.11755C2.2339 8.13843 2.20474 8.1504 2.17463 8.1522C2.14452 8.154 2.11458 8.14556 2.088 8.12777C2.06142 8.10999 2.0392 8.08352 2.0237 8.0512C2.00821 8.01887 2.00002 7.9819 2 7.94422V2.05588C2.00002 2.0182 2.00821 1.98122 2.0237 1.9489C2.0392 1.91658 2.06142 1.89011 2.088 1.87232C2.11458 1.85454 2.14452 1.84609 2.17463 1.84789C2.20474 1.84969 2.2339 1.86167 2.259 1.88255L5.792 4.82672C5.81483 4.84574 5.83354 4.87152 5.84649 4.90175C5.85943 4.93199 5.8662 4.96575 5.8662 5.00005C5.8662 5.03434 5.85943 5.06811 5.84649 5.09834C5.83354 5.12858 5.81483 5.15436 5.792 5.17338V5.17338Z" fill="white"/>
</g>
<defs>
<clipPath id="clip0_346_41">
<rect width="8" height="10" fill="white"/>
</clipPath>
</defs>
</svg>
