<svg width="14" height="14" viewBox="0 0 14 14" fill="none" xmlns="http://www.w3.org/2000/svg">
<g clip-path="url(#clip0_307_84)">
<path d="M7.00033 2.33366C5.76265 2.33366 4.57566 2.82532 3.70049 3.70049C2.82532 4.57566 2.33366 5.76265 2.33366 7.00033H4.08366C4.39308 7.00033 4.68982 7.12324 4.90862 7.34203C5.12741 7.56083 5.25033 7.85757 5.25033 8.16699V11.0837C5.25033 11.3931 5.12741 11.6898 4.90862 11.9086C4.68982 12.1274 4.39308 12.2503 4.08366 12.2503H2.33366C2.02424 12.2503 1.72749 12.1274 1.5087 11.9086C1.28991 11.6898 1.16699 11.3931 1.16699 11.0837V7.00033C1.16699 3.77858 3.77858 1.16699 7.00033 1.16699C10.2221 1.16699 12.8337 3.77858 12.8337 7.00033V11.0837C12.8337 11.3931 12.7107 11.6898 12.4919 11.9086C12.2732 12.1274 11.9764 12.2503 11.667 12.2503H9.91699C9.60757 12.2503 9.31083 12.1274 9.09203 11.9086C8.87324 11.6898 8.75033 11.3931 8.75033 11.0837V8.16699C8.75033 7.85757 8.87324 7.56083 9.09203 7.34203C9.31083 7.12324 9.60757 7.00033 9.91699 7.00033H11.667C11.667 5.76265 11.1753 4.57566 10.3002 3.70049C9.42499 2.82532 8.238 2.33366 7.00033 2.33366V2.33366ZM2.33366 8.16699V11.0837H4.08366V8.16699H2.33366ZM9.91699 8.16699V11.0837H11.667V8.16699H9.91699Z" fill="#AEB1BE"/>
</g>
<defs>
<clipPath id="clip0_307_84">
<rect width="14" height="14" fill="white"/>
</clipPath>
</defs>
</svg>
