<svg width="14" height="14" viewBox="0 0 14 14" fill="none" xmlns="http://www.w3.org/2000/svg">
<path d="M10.5003 10.4321V9.33366L13.417 11.0837L10.5003 12.8337V11.6145C9.60866 11.4868 8.76485 11.1318 8.05004 10.5838C7.33523 10.0357 6.77345 9.31288 6.41874 8.48491L6.41699 8.48199L6.41524 8.48549C6.01046 9.42976 5.33751 10.2345 4.4798 10.8C3.62208 11.3656 2.61728 11.667 1.58991 11.667H1.16699V10.5003H1.58991C2.38906 10.5003 3.17065 10.2658 3.83779 9.82582C4.50494 9.38586 5.02832 8.7598 5.34308 8.02524L5.78233 7.00033L5.34308 5.97541C5.02832 5.24085 4.50494 4.61479 3.83779 4.17483C3.17065 3.73487 2.38906 3.50035 1.58991 3.50033H1.16699V2.33366H1.58991C2.61735 2.33371 3.62219 2.63523 4.47992 3.20086C5.33764 3.76649 6.01055 4.57136 6.41524 5.51574L6.41699 5.51866L6.41874 5.51516C6.77353 4.68729 7.33534 3.96463 8.05015 3.41664C8.76496 2.86866 9.60873 2.51379 10.5003 2.38616V1.16699L13.417 2.91699L10.5003 4.66699V3.56858C9.83935 3.69104 9.21883 3.9748 8.69384 4.39467C8.16886 4.81453 7.75566 5.35751 7.49091 5.97541L7.05166 7.00033L7.49091 8.02524C7.75566 8.64314 8.16886 9.18612 8.69384 9.60599C9.21883 10.0259 9.83935 10.3096 10.5003 10.4321V10.4321Z" fill="#AEB1BE"/>
</svg>
