<svg width="14" height="14" viewBox="0 0 14 14" fill="none" xmlns="http://www.w3.org/2000/svg">
<g clip-path="url(#clip0_308_38)">
<path d="M11.303 7.24293L5.12024 11.3648C5.07632 11.394 5.02529 11.4108 4.9726 11.4133C4.9199 11.4158 4.8675 11.404 4.82099 11.3791C4.77448 11.3542 4.73559 11.3171 4.70848 11.2719C4.68136 11.2266 4.66702 11.1749 4.66699 11.1221V2.87843C4.66702 2.82567 4.68136 2.77391 4.70848 2.72866C4.73559 2.6834 4.77448 2.64635 4.82099 2.62145C4.8675 2.59655 4.9199 2.58473 4.9726 2.58725C5.02529 2.58977 5.07632 2.60654 5.12024 2.63576L11.303 6.7576C11.3429 6.78423 11.3757 6.82032 11.3983 6.86265C11.421 6.90498 11.4328 6.95225 11.4328 7.00026C11.4328 7.04828 11.421 7.09554 11.3983 7.13788C11.3757 7.18021 11.3429 7.21629 11.303 7.24293V7.24293Z" fill="#AEB1BE"/>
</g>
<defs>
<clipPath id="clip0_308_38">
<rect width="14" height="14" fill="white"/>
</clipPath>
</defs>
</svg>
