<svg width="14" height="14" viewBox="0 0 14 14" fill="none" xmlns="http://www.w3.org/2000/svg">
<g clip-path="url(#clip0_307_64)">
<path d="M4.66699 11.6665V12.7935C4.66708 12.849 4.65135 12.9034 4.62165 12.9502C4.59194 12.997 4.5495 13.0345 4.49928 13.058C4.44907 13.0816 4.39318 13.0904 4.33816 13.0833C4.28314 13.0762 4.23128 13.0536 4.18866 13.0181L1.78533 11.0155C1.73923 10.9771 1.70611 10.9254 1.6905 10.8674C1.67488 10.8095 1.67753 10.7481 1.69807 10.6917C1.71861 10.6353 1.75605 10.5866 1.80528 10.5523C1.85451 10.518 1.91314 10.4997 1.97316 10.4999H10.5003C10.8097 10.4999 11.1065 10.377 11.3253 10.1582C11.5441 9.93937 11.667 9.64262 11.667 9.3332V4.66654H12.8337V9.3332C12.8337 9.95204 12.5878 10.5455 12.1502 10.9831C11.7127 11.4207 11.1192 11.6665 10.5003 11.6665H4.66699ZM9.33366 2.3332V1.2062C9.33357 1.15073 9.3493 1.09639 9.379 1.04954C9.40871 1.00269 9.45116 0.965289 9.50137 0.941715C9.55158 0.91814 9.60747 0.909372 9.66249 0.91644C9.71751 0.923508 9.76937 0.946119 9.81199 0.98162L12.2153 2.9842C12.2614 3.02261 12.2945 3.07428 12.3101 3.13218C12.3257 3.19008 12.3231 3.25139 12.3027 3.30775C12.2822 3.36412 12.2449 3.41281 12.1957 3.44719C12.1466 3.48157 12.088 3.49996 12.0281 3.49987H3.50033C3.19091 3.49987 2.89416 3.62279 2.67537 3.84158C2.45658 4.06037 2.33366 4.35712 2.33366 4.66654V9.3332H1.16699V4.66654C1.16699 4.0477 1.41282 3.45421 1.85041 3.01662C2.28799 2.57904 2.88149 2.3332 3.50033 2.3332H9.33366Z" fill="#AEB1BE"/>
</g>
<defs>
<clipPath id="clip0_307_64">
<rect width="14" height="14" fill="white"/>
</clipPath>
</defs>
</svg>
