<svg width="14" height="14" viewBox="0 0 14 14" fill="none" xmlns="http://www.w3.org/2000/svg">
<g clip-path="url(#clip0_308_48)">
<path d="M7.00023 6.22268L12.3803 2.63576C12.4242 2.60654 12.4753 2.58977 12.528 2.58725C12.5807 2.58473 12.6331 2.59655 12.6796 2.62145C12.7261 2.64635 12.765 2.6834 12.7921 2.72866C12.8192 2.77391 12.8335 2.82567 12.8336 2.87843V11.1221C12.8335 11.1749 12.8192 11.2266 12.7921 11.2719C12.765 11.3171 12.7261 11.3542 12.6796 11.3791C12.6331 11.404 12.5807 11.4158 12.528 11.4133C12.4753 11.4108 12.4242 11.394 12.3803 11.3648L7.00023 7.77785V11.1221C7.00021 11.1749 6.98587 11.2266 6.95875 11.2719C6.93163 11.3171 6.89274 11.3542 6.84623 11.3791C6.79972 11.404 6.74733 11.4158 6.69463 11.4133C6.64193 11.4108 6.5909 11.394 6.54698 11.3648L0.364232 7.24293C0.324286 7.21629 0.291533 7.18021 0.26888 7.13788C0.246227 7.09554 0.234375 7.04828 0.234375 7.00026C0.234375 6.95225 0.246227 6.90498 0.26888 6.86265C0.291533 6.82032 0.324286 6.78423 0.364232 6.7576L6.54698 2.63576C6.5909 2.60654 6.64193 2.58977 6.69463 2.58725C6.74733 2.58473 6.79972 2.59655 6.84623 2.62145C6.89274 2.64635 6.93163 2.6834 6.95875 2.72866C6.98587 2.77391 7.00021 2.82567 7.00023 2.87843V6.22268Z" fill="#AEB1BE"/>
</g>
<defs>
<clipPath id="clip0_308_48">
<rect width="14" height="14" fill="white"/>
</clipPath>
</defs>
</svg>
