<svg width="14" height="14" viewBox="0 0 14 14" fill="none" xmlns="http://www.w3.org/2000/svg">
<g clip-path="url(#clip0_308_53)">
<path d="M7.00033 7.77785L1.62024 11.3648C1.57632 11.394 1.52529 11.4108 1.4726 11.4133C1.4199 11.4158 1.3675 11.404 1.32099 11.3791C1.27448 11.3542 1.23559 11.3171 1.20848 11.2719C1.18136 11.2266 1.16702 11.1749 1.16699 11.1221V2.87843C1.16702 2.82567 1.18136 2.77391 1.20848 2.72866C1.23559 2.6834 1.27448 2.64635 1.32099 2.62145C1.3675 2.59655 1.4199 2.58473 1.4726 2.58725C1.52529 2.58977 1.57632 2.60654 1.62024 2.63576L7.00033 6.22268V2.87843C7.00035 2.82567 7.01469 2.77391 7.04181 2.72866C7.06893 2.6834 7.10781 2.64635 7.15433 2.62145C7.20084 2.59655 7.25323 2.58473 7.30593 2.58725C7.35863 2.58977 7.40965 2.60654 7.45358 2.63576L13.6363 6.7576C13.6763 6.78423 13.709 6.82032 13.7317 6.86265C13.7543 6.90498 13.7662 6.95225 13.7662 7.00026C13.7662 7.04828 13.7543 7.09554 13.7317 7.13788C13.709 7.18021 13.6763 7.21629 13.6363 7.24293L7.45358 11.3648C7.40965 11.394 7.35863 11.4108 7.30593 11.4133C7.25323 11.4158 7.20084 11.404 7.15433 11.3791C7.10781 11.3542 7.06893 11.3171 7.04181 11.2719C7.01469 11.2266 7.00035 11.1749 7.00033 11.1221V7.77785V7.77785Z" fill="#AEB1BE"/>
</g>
<defs>
<clipPath id="clip0_308_53">
<rect width="14" height="14" fill="white"/>
</clipPath>
</defs>
</svg>
