<svg width="14" height="14" viewBox="0 0 14 14" fill="none" xmlns="http://www.w3.org/2000/svg">
<g clip-path="url(#clip0_307_79)">
<path d="M3.43492 9.33302H1.16634C1.01163 9.33302 0.863258 9.27156 0.753862 9.16217C0.644466 9.05277 0.583008 8.9044 0.583008 8.74969V5.24969C0.583008 5.09498 0.644466 4.9466 0.753862 4.83721C0.863258 4.72781 1.01163 4.66635 1.16634 4.66635H3.43492L6.52309 2.13935C6.56582 2.10432 6.61762 2.08215 6.67246 2.07542C6.72731 2.06868 6.78293 2.07767 6.83287 2.10132C6.8828 2.12497 6.92499 2.16232 6.95452 2.20902C6.98405 2.25572 6.99971 2.30985 6.99967 2.3651V11.6343C6.99971 11.6895 6.98405 11.7437 6.95452 11.7904C6.92499 11.837 6.8828 11.8744 6.83287 11.8981C6.78293 11.9217 6.72731 11.9307 6.67246 11.924C6.61762 11.9172 6.56582 11.8951 6.52309 11.86L3.43551 9.33302H3.43492ZM11.3198 11.7445L10.4938 10.9185C11.0468 10.4265 11.4892 9.82283 11.7919 9.14734C12.0945 8.47185 12.2506 7.73988 12.2497 6.99969C12.2504 6.22157 12.0778 5.45307 11.7444 4.74999C11.411 4.04691 10.9253 3.42691 10.3223 2.93502L11.1507 2.10669C11.8614 2.70842 12.4324 3.45797 12.8237 4.30305C13.215 5.14813 13.4173 6.06841 13.4163 6.99969C13.4163 8.87977 12.6078 10.5709 11.3198 11.7445ZM9.25309 9.67777L8.42359 8.84827C8.70678 8.63051 8.93609 8.35053 9.09379 8.02999C9.25148 7.70944 9.33333 7.35692 9.33301 6.99969C9.33301 6.16552 8.89551 5.43344 8.23634 5.02102L9.07576 4.1816C9.51761 4.50663 9.87674 4.9311 10.1241 5.42067C10.3715 5.91024 10.5001 6.45117 10.4997 6.99969C10.4997 8.07419 10.0155 9.03552 9.25309 9.67777Z" fill="#AEB1BE"/>
</g>
<defs>
<clipPath id="clip0_307_79">
<rect width="14" height="14" fill="white"/>
</clipPath>
</defs>
</svg>
