<svg width="18" height="18" viewBox="0 0 18 18" fill="none" xmlns="http://www.w3.org/2000/svg">
<g clip-path="url(#clip0_308_38)">
<path d="M14.532 9.31248L6.58275 14.612C6.52628 14.6496 6.46067 14.6711 6.39292 14.6744C6.32516 14.6776 6.2578 14.6624 6.198 14.6304C6.1382 14.5984 6.0882 14.5507 6.05334 14.4925C6.01847 14.4344 6.00004 14.3678 6 14.3V3.70098C6.00004 3.63315 6.01847 3.56659 6.05334 3.50841C6.0882 3.45023 6.1382 3.40259 6.198 3.37057C6.2578 3.33856 6.32516 3.32336 6.39292 3.3266C6.46067 3.32984 6.52628 3.3514 6.58275 3.38898L14.532 8.68848C14.5834 8.72272 14.6255 8.76912 14.6546 8.82355C14.6837 8.87797 14.699 8.93875 14.699 9.00048C14.699 9.06221 14.6837 9.12298 14.6546 9.17741C14.6255 9.23184 14.5834 9.27823 14.532 9.31248V9.31248Z" fill="#AEB1BE"/>
</g>
<defs>
<clipPath id="clip0_308_38">
<rect width="18" height="18" fill="white"/>
</clipPath>
</defs>
</svg>
