<svg width="18" height="18" viewBox="0 0 18 18" fill="none" xmlns="http://www.w3.org/2000/svg">
<path d="M13.5 13.4122V12L17.25 14.25L13.5 16.5V14.9325C12.3536 14.7683 11.2687 14.312 10.3496 13.6073C9.43059 12.9026 8.70831 11.9733 8.25225 10.9088L8.25 10.905L8.24775 10.9095C7.72731 12.1236 6.8621 13.1582 5.75932 13.8853C4.65654 14.6124 3.36466 15 2.04375 15H1.5V13.5H2.04375C3.07124 13.5 4.07613 13.1984 4.93389 12.6328C5.79165 12.0671 6.46457 11.2622 6.86925 10.3177L7.434 9L6.86925 7.68225C6.46457 6.73781 5.79165 5.93289 4.93389 5.36722C4.07613 4.80156 3.07124 4.50003 2.04375 4.5H1.5V3H2.04375C3.36474 3.00006 4.65668 3.38773 5.75947 4.11497C6.86226 4.84221 7.72743 5.87705 8.24775 7.09125L8.25 7.095L8.25225 7.0905C8.70841 6.0261 9.43073 5.09696 10.3498 4.39241C11.2688 3.68786 12.3537 3.2316 13.5 3.0675V1.5L17.25 3.75L13.5 6V4.58775C12.6502 4.74521 11.8524 5.11004 11.1774 5.64987C10.5024 6.18969 9.97114 6.88781 9.63075 7.68225L9.066 9L9.63075 10.3177C9.97114 11.1122 10.5024 11.8103 11.1774 12.3501C11.8524 12.89 12.6502 13.2548 13.5 13.4122V13.4122Z" fill="#AEB1BE"/>
</svg>
