<svg width="18" height="18" viewBox="0 0 18 18" fill="none" xmlns="http://www.w3.org/2000/svg">
<g clip-path="url(#clip0_307_64)">
<path d="M6 15.0004V16.4494C6.00012 16.5207 5.97989 16.5906 5.9417 16.6508C5.90351 16.711 5.84893 16.7591 5.78438 16.7894C5.71982 16.8198 5.64796 16.831 5.57722 16.8219C5.50648 16.8129 5.4398 16.7838 5.385 16.7381L2.295 14.1634C2.23573 14.114 2.19316 14.0475 2.17308 13.973C2.153 13.8984 2.1564 13.8196 2.18281 13.747C2.20922 13.6745 2.25736 13.6119 2.32066 13.5678C2.38396 13.5237 2.45933 13.5001 2.5365 13.5004H13.5C13.8978 13.5004 14.2794 13.3424 14.5607 13.0611C14.842 12.7797 15 12.3982 15 12.0004V6.00039H16.5V12.0004C16.5 12.796 16.1839 13.5591 15.6213 14.1217C15.0587 14.6843 14.2956 15.0004 13.5 15.0004H6ZM12 3.00039V1.55139C11.9999 1.48007 12.0201 1.4102 12.0583 1.34997C12.0965 1.28974 12.1511 1.24164 12.2156 1.21133C12.2802 1.18102 12.352 1.16975 12.4228 1.17884C12.4935 1.18793 12.5602 1.217 12.615 1.26264L15.705 3.83739C15.7642 3.88677 15.8068 3.95321 15.8269 4.02765C15.847 4.10209 15.8436 4.18091 15.8173 4.25339C15.791 4.32586 15.743 4.38846 15.6798 4.43266C15.6166 4.47686 15.5414 4.50051 15.4642 4.50039H4.5C4.10218 4.50039 3.72064 4.65843 3.43934 4.93973C3.15804 5.22104 3 5.60257 3 6.00039V12.0004H1.5V6.00039C1.5 5.20474 1.81607 4.44168 2.37868 3.87907C2.94129 3.31646 3.70435 3.00039 4.5 3.00039H12Z" fill="#AEB1BE"/>
</g>
<defs>
<clipPath id="clip0_307_64">
<rect width="18" height="18" fill="white"/>
</clipPath>
</defs>
</svg>
