<svg width="18" height="18" viewBox="0 0 18 18" fill="none" xmlns="http://www.w3.org/2000/svg">
<g clip-path="url(#clip0_308_48)">
<path d="M8.99974 8.00073L15.917 3.38898C15.9735 3.3514 16.0391 3.32984 16.1068 3.3266C16.1746 3.32336 16.2419 3.33856 16.3017 3.37057C16.3615 3.40259 16.4115 3.45023 16.4464 3.50841C16.4813 3.56659 16.4997 3.63315 16.4997 3.70098V14.3C16.4997 14.3678 16.4813 14.4344 16.4464 14.4925C16.4115 14.5507 16.3615 14.5984 16.3017 14.6304C16.2419 14.6624 16.1746 14.6776 16.1068 14.6744C16.0391 14.6711 15.9735 14.6496 15.917 14.612L8.99974 10.0002V14.3C8.99971 14.3678 8.98127 14.4344 8.9464 14.4925C8.91154 14.5507 8.86154 14.5984 8.80174 14.6304C8.74194 14.6624 8.67458 14.6776 8.60682 14.6744C8.53907 14.6711 8.47346 14.6496 8.41699 14.612L0.46774 9.31248C0.416381 9.27823 0.37427 9.23184 0.345145 9.17741C0.31602 9.12298 0.300781 9.06221 0.300781 9.00048C0.300781 8.93875 0.31602 8.87797 0.345145 8.82355C0.37427 8.76912 0.416381 8.72272 0.46774 8.68848L8.41699 3.38898C8.47346 3.3514 8.53907 3.32984 8.60682 3.3266C8.67458 3.32336 8.74194 3.33856 8.80174 3.37057C8.86154 3.40259 8.91154 3.45023 8.9464 3.50841C8.98127 3.56659 8.99971 3.63315 8.99974 3.70098V8.00073Z" fill="#AEB1BE"/>
</g>
<defs>
<clipPath id="clip0_308_48">
<rect width="18" height="18" fill="white"/>
</clipPath>
</defs>
</svg>
