<svg width="18" height="18" viewBox="0 0 18 18" fill="none" xmlns="http://www.w3.org/2000/svg">
<g clip-path="url(#clip0_307_79)">
<path d="M4.41675 12H1.5C1.30109 12 1.11032 11.921 0.96967 11.7803C0.829018 11.6397 0.75 11.4489 0.75 11.25V6.75002C0.75 6.5511 0.829018 6.36034 0.96967 6.21969C1.11032 6.07903 1.30109 6.00002 1.5 6.00002H4.41675L8.38725 2.75102C8.44219 2.70598 8.50879 2.67747 8.5793 2.66881C8.64981 2.66015 8.72133 2.6717 8.78553 2.70211C8.84973 2.73253 8.90398 2.78055 8.94195 2.84059C8.97992 2.90063 9.00005 2.97023 9 3.04127V14.9588C9.00005 15.0298 8.97992 15.0994 8.94195 15.1594C8.90398 15.2195 8.84973 15.2675 8.78553 15.2979C8.72133 15.3283 8.64981 15.3399 8.5793 15.3312C8.50879 15.3226 8.44219 15.2941 8.38725 15.249L4.4175 12H4.41675ZM14.5545 15.1005L13.4925 14.0385C14.2035 13.4059 14.7723 12.6298 15.1614 11.7613C15.5505 10.8928 15.7511 9.95169 15.75 9.00002C15.7509 7.99958 15.529 7.0115 15.1004 6.10754C14.6718 5.20359 14.0472 4.40644 13.272 3.77402L14.337 2.70902C15.2509 3.48268 15.9849 4.44638 16.488 5.53291C16.9912 6.61945 17.2512 7.80265 17.25 9.00002C17.25 11.4173 16.2105 13.5915 14.5545 15.1005ZM11.8972 12.4433L10.8307 11.3768C11.1949 11.0968 11.4897 10.7368 11.6924 10.3247C11.8952 9.91256 12.0004 9.45932 12 9.00002C12 7.92752 11.4375 6.98627 10.59 6.45602L11.6693 5.37677C12.2373 5.79466 12.6991 6.3404 13.0171 6.96985C13.3352 7.5993 13.5006 8.29478 13.5 9.00002C13.5 10.3815 12.8775 11.6175 11.8972 12.4433Z" fill="#AEB1BE"/>
</g>
<defs>
<clipPath id="clip0_307_79">
<rect width="18" height="18" fill="white"/>
</clipPath>
</defs>
</svg>
